0
SECTION
2
HEADER
9
$ACADVER
1
AC1006
0
ENDSEC
0
SECTION
2
TABLES
0
TABLE
2
LAYER
70
6
0
LAYER
70
0
62
1
6
CONTINUOUS
2
L0D0_0
0
LAYER
70
0
62
2
6
CONTINUOUS
2
Reagent Routing
0
LAYER
70
0
62
3
6
CONTINUOUS
2
*ADSK_ASSOC_ENTITY_BACKUPS
0
LAYER
70
0
62
4
6
CONTINUOUS
2
Air Routing
0
LAYER
70
0
62
5
6
CONTINUOUS
2
Reservoirs
0
LAYER
70
0
62
6
6
CONTINUOUS
2
Boundary Marking
0
ENDTAB
0
ENDSEC
0
SECTION
2
BLOCKS
0
BLOCK
2
*U35
70
1
10
0
20
0
0
ENDBLK
0
BLOCK
2
*U36
70
1
10
0
20
0
0
INSERT
8
0
2
*U35
10
0
20
0
41
1
42
1
50
0
0
INSERT
8
0
2
*U35
10
0
20
400
41
1
42
1
50
0
0
INSERT
8
0
2
*U35
10
0
20
800
41
1
42
1
50
0
0
INSERT
8
0
2
*U35
10
0
20
1200
41
1
42
1
50
0
0
ENDBLK
0
BLOCK
2
*U24
70
1
10
0
20
0
0
TEXT
8
Reagent Routing
10
258.333
20
1250
40
250
1
1
50
0
72
1
11
258.333
21
1250
73
2
0
TEXT
8
Reagent Routing
10
233.333
20
-1250
40
250
1
6
50
0
72
1
11
233.333
21
-1250
73
2
0
POLYLINE
8
Reagent Routing
70
0
40
20
41
20
66
1
0
VERTEX
8
Reagent Routing
10
-91.667
20
1250
0
VERTEX
8
Reagent Routing
10
-316.667
20
1250
0
VERTEX
8
Reagent Routing
10
-316.667
20
750
0
SEQEND
0
POLYLINE
8
Reagent Routing
70
0
40
20
41
20
66
1
0
VERTEX
8
Reagent Routing
10
-91.667
20
-1300
0
VERTEX
8
Reagent Routing
10
-316.667
20
-1300
0
VERTEX
8
Reagent Routing
10
-316.667
20
-875
0
SEQEND
0
ENDBLK
0
BLOCK
2
*U19
70
1
10
0
20
0
0
INSERT
8
0
2
*U36
10
-1300
20
-2950
41
1
42
-1
50
180
0
ENDBLK
0
BLOCK
2
*U15
70
1
10
0
20
0
0
POLYLINE
8
Reagent Routing
70
0
40
50
41
50
66
1
0
VERTEX
8
Reagent Routing
10
-20400
20
950
0
VERTEX
8
Reagent Routing
10
-20400
20
950
0
VERTEX
8
Reagent Routing
10
-24650
20
950
0
SEQEND
0
POLYLINE
8
Reagent Routing
70
0
40
50
41
50
66
1
0
VERTEX
8
Reagent Routing
10
-24650
20
-2350
0
VERTEX
8
Reagent Routing
10
-24650
20
-2350
0
VERTEX
8
Reagent Routing
10
24075
20
-2350
0
VERTEX
8
Reagent Routing
10
24075
20
475
0
SEQEND
0
POLYLINE
8
Reagent Routing
70
0
40
50
41
50
66
1
0
VERTEX
8
Reagent Routing
10
20075
20
475
0
VERTEX
8
Reagent Routing
10
20075
20
-2200
0
VERTEX
8
Reagent Routing
10
-24650
20
-2200
0
SEQEND
0
POLYLINE
8
Reagent Routing
70
0
40
50
41
50
66
1
0
VERTEX
8
Reagent Routing
10
16075
20
475
0
VERTEX
8
Reagent Routing
10
16075
20
-2050
0
VERTEX
8
Reagent Routing
10
-24650
20
-2050
0
SEQEND
0
POLYLINE
8
Reagent Routing
70
0
40
50
41
50
66
1
0
VERTEX
8
Reagent Routing
10
12075
20
475
0
VERTEX
8
Reagent Routing
10
12075
20
-1900
0
VERTEX
8
Reagent Routing
10
-24650
20
-1900
0
SEQEND
0
POLYLINE
8
Reagent Routing
70
0
40
50
41
50
66
1
0
VERTEX
8
Reagent Routing
10
8075
20
475
0
VERTEX
8
Reagent Routing
10
8075
20
-1750
0
VERTEX
8
Reagent Routing
10
-24650
20
-1750
0
SEQEND
0
POLYLINE
8
Reagent Routing
70
0
40
50
41
50
66
1
0
VERTEX
8
Reagent Routing
10
4075
20
475
0
VERTEX
8
Reagent Routing
10
4075
20
-1600
0
VERTEX
8
Reagent Routing
10
-24650
20
-1600
0
SEQEND
0
POLYLINE
8
Reagent Routing
70
0
40
50
41
50
66
1
0
VERTEX
8
Reagent Routing
10
75
20
475
0
VERTEX
8
Reagent Routing
10
75
20
-1450
0
VERTEX
8
Reagent Routing
10
-23025
20
-1450
0
VERTEX
8
Reagent Routing
10
-23025
20
200
0
VERTEX
8
Reagent Routing
10
-24650
20
200
0
SEQEND
0
POLYLINE
8
Reagent Routing
70
0
40
50
41
50
66
1
0
VERTEX
8
Reagent Routing
10
-3925
20
475
0
VERTEX
8
Reagent Routing
10
-3925
20
-1300
0
VERTEX
8
Reagent Routing
10
-22875
20
-1300
0
VERTEX
8
Reagent Routing
10
-22875
20
350
0
VERTEX
8
Reagent Routing
10
-24650
20
350
0
SEQEND
0
POLYLINE
8
Reagent Routing
70
0
40
50
41
50
66
1
0
VERTEX
8
Reagent Routing
10
-11925
20
475
0
VERTEX
8
Reagent Routing
10
-11925
20
-1000
0
VERTEX
8
Reagent Routing
10
-22575
20
-1000
0
VERTEX
8
Reagent Routing
10
-22575
20
650
0
VERTEX
8
Reagent Routing
10
-24650
20
650
0
SEQEND
0
POLYLINE
8
Reagent Routing
70
0
40
50
41
50
66
1
0
VERTEX
8
Reagent Routing
10
-7925
20
475
0
VERTEX
8
Reagent Routing
10
-7925
20
-1150
0
VERTEX
8
Reagent Routing
10
-22725
20
-1150
0
VERTEX
8
Reagent Routing
10
-22725
20
500
0
VERTEX
8
Reagent Routing
10
-24650
20
500
0
SEQEND
0
POLYLINE
8
Reagent Routing
70
0
40
50
41
50
66
1
0
VERTEX
8
Reagent Routing
10
-15925
20
475
0
VERTEX
8
Reagent Routing
10
-15925
20
-850
0
VERTEX
8
Reagent Routing
10
-22425
20
-850
0
VERTEX
8
Reagent Routing
10
-22425
20
800
0
VERTEX
8
Reagent Routing
10
-24650
20
800
0
SEQEND
0
ENDBLK
0
BLOCK
2
*U12
70
1
10
0
20
0
0
POLYLINE
8
Reagent Routing
70
0
40
50
41
50
66
1
0
VERTEX
8
Reagent Routing
10
5450
20
150
0
VERTEX
8
Reagent Routing
10
4300
20
150
0
VERTEX
8
Reagent Routing
10
4300
20
300
0
VERTEX
8
Reagent Routing
10
2450
20
300
0
VERTEX
8
Reagent Routing
10
2450
20
700
0
SEQEND
0
POLYLINE
8
Reagent Routing
70
0
40
50
41
50
66
1
0
VERTEX
8
Reagent Routing
10
5450
20
0
0
VERTEX
8
Reagent Routing
10
4150
20
0
0
VERTEX
8
Reagent Routing
10
4150
20
150
0
VERTEX
8
Reagent Routing
10
2300
20
150
0
VERTEX
8
Reagent Routing
10
2300
20
300
0
VERTEX
8
Reagent Routing
10
450
20
300
0
VERTEX
8
Reagent Routing
10
450
20
700
0
SEQEND
0
POLYLINE
8
Reagent Routing
70
0
40
50
41
50
66
1
0
VERTEX
8
Reagent Routing
10
5450
20
-150
0
VERTEX
8
Reagent Routing
10
4000
20
-150
0
VERTEX
8
Reagent Routing
10
4000
20
0
0
VERTEX
8
Reagent Routing
10
2150
20
0
0
VERTEX
8
Reagent Routing
10
2150
20
150
0
VERTEX
8
Reagent Routing
10
300
20
150
0
VERTEX
8
Reagent Routing
10
300
20
300
0
VERTEX
8
Reagent Routing
10
-1550
20
300
0
VERTEX
8
Reagent Routing
10
-1550
20
700
0
SEQEND
0
POLYLINE
8
Reagent Routing
70
0
40
50
41
50
66
1
0
VERTEX
8
Reagent Routing
10
5450
20
-300
0
VERTEX
8
Reagent Routing
10
3850
20
-300
0
VERTEX
8
Reagent Routing
10
3850
20
-150
0
VERTEX
8
Reagent Routing
10
2000
20
-150
0
VERTEX
8
Reagent Routing
10
2000
20
0
0
VERTEX
8
Reagent Routing
10
150
20
0
0
VERTEX
8
Reagent Routing
10
150
20
150
0
VERTEX
8
Reagent Routing
10
-1700
20
150
0
VERTEX
8
Reagent Routing
10
-1700
20
300
0
VERTEX
8
Reagent Routing
10
-3550
20
300
0
VERTEX
8
Reagent Routing
10
-3550
20
700
0
SEQEND
0
POLYLINE
8
Reagent Routing
70
0
40
50
41
50
66
1
0
VERTEX
8
Reagent Routing
10
5450
20
-450
0
VERTEX
8
Reagent Routing
10
3700
20
-450
0
VERTEX
8
Reagent Routing
10
3700
20
-300
0
VERTEX
8
Reagent Routing
10
1850
20
-300
0
VERTEX
8
Reagent Routing
10
1850
20
-150
0
VERTEX
8
Reagent Routing
10
0
20
-150
0
VERTEX
8
Reagent Routing
10
0
20
0
0
VERTEX
8
Reagent Routing
10
-1850
20
0
0
VERTEX
8
Reagent Routing
10
-1850
20
150
0
VERTEX
8
Reagent Routing
10
-3700
20
150
0
VERTEX
8
Reagent Routing
10
-3700
20
300
0
VERTEX
8
Reagent Routing
10
-5550
20
300
0
VERTEX
8
Reagent Routing
10
-5550
20
700
0
SEQEND
0
POLYLINE
8
Reagent Routing
70
0
40
50
41
50
66
1
0
VERTEX
8
Reagent Routing
10
4450
20
700
0
VERTEX
8
Reagent Routing
10
4450
20
300
0
VERTEX
8
Reagent Routing
10
5450
20
300
0
SEQEND
0
ENDBLK
0
BLOCK
2
*U8
70
1
10
0
20
0
0
CIRCLE
8
Reagent Routing
10
0
20
0
40
500
0
ENDBLK
0
BLOCK
2
*U6
70
1
10
0
20
0
0
CIRCLE
8
Reagent Routing
10
0
20
-25
40
500
0
ENDBLK
0
BLOCK
2
*U25
70
1
10
0
20
0
0
INSERT
8
0
2
*U24
10
0
20
0
41
1
42
1
50
0
0
INSERT
8
0
2
*U24
10
0
20
-5100
41
1
42
1
50
0
0
INSERT
8
0
2
*U24
10
0
20
-10200
41
1
42
1
50
0
0
INSERT
8
0
2
*U24
10
0
20
-15300
41
1
42
1
50
0
0
INSERT
8
0
2
*U24
10
0
20
-20400
41
1
42
1
50
0
0
INSERT
8
0
2
*U24
10
0
20
-25500
41
1
42
1
50
0
0
INSERT
8
0
2
*U24
10
0
20
-30600
41
1
42
1
50
0
0
INSERT
8
0
2
*U24
10
0
20
-35700
41
1
42
1
50
0
0
ENDBLK
0
BLOCK
2
Pinwheel
70
0
10
0
20
0
0
ENDBLK
0
BLOCK
2
*U20
70
1
10
0
20
0
0
INSERT
8
0
2
*U19
10
4000
20
0
41
1
42
1
50
0
0
INSERT
8
0
2
*U19
10
8000
20
0
41
1
42
1
50
0
0
INSERT
8
0
2
*U19
10
12000
20
0
41
1
42
1
50
0
0
INSERT
8
0
2
*U19
10
16000
20
0
41
1
42
1
50
0
0
INSERT
8
0
2
*U19
10
20000
20
0
41
1
42
1
50
0
0
INSERT
8
0
2
*U19
10
24000
20
0
41
1
42
1
50
0
0
INSERT
8
0
2
*U19
10
28000
20
0
41
1
42
1
50
0
0
INSERT
8
0
2
*U19
10
32000
20
0
41
1
42
1
50
0
0
INSERT
8
0
2
*U19
10
36000
20
0
41
1
42
1
50
0
0
INSERT
8
0
2
*U19
10
40000
20
0
41
1
42
1
50
0
0
INSERT
8
0
2
*U19
10
0
20
5100
41
1
42
1
50
0
0
INSERT
8
0
2
*U19
10
0
20
10200
41
1
42
1
50
0
0
INSERT
8
0
2
*U19
10
0
20
20400
41
1
42
1
50
0
0
INSERT
8
0
2
*U19
10
0
20
25500
41
1
42
1
50
0
0
INSERT
8
0
2
*U19
10
4000
20
5100
41
1
42
1
50
0
0
INSERT
8
0
2
*U19
10
4000
20
10200
41
1
42
1
50
0
0
INSERT
8
0
2
*U19
10
4000
20
15300
41
1
42
1
50
0
0
INSERT
8
0
2
*U19
10
4000
20
20400
41
1
42
1
50
0
0
INSERT
8
0
2
*U19
10
4000
20
25500
41
1
42
1
50
0
0
INSERT
8
0
2
*U19
10
4000
20
30600
41
1
42
1
50
0
0
INSERT
8
0
2
*U19
10
8000
20
5100
41
1
42
1
50
0
0
INSERT
8
0
2
*U19
10
8000
20
10200
41
1
42
1
50
0
0
INSERT
8
0
2
*U19
10
8000
20
15300
41
1
42
1
50
0
0
INSERT
8
0
2
*U19
10
8000
20
20400
41
1
42
1
50
0
0
INSERT
8
0
2
*U19
10
8000
20
25500
41
1
42
1
50
0
0
INSERT
8
0
2
*U19
10
8000
20
30600
41
1
42
1
50
0
0
INSERT
8
0
2
*U19
10
12000
20
5100
41
1
42
1
50
0
0
INSERT
8
0
2
*U19
10
12000
20
10200
41
1
42
1
50
0
0
INSERT
8
0
2
*U19
10
12000
20
15300
41
1
42
1
50
0
0
INSERT
8
0
2
*U19
10
12000
20
20400
41
1
42
1
50
0
0
INSERT
8
0
2
*U19
10
12000
20
25500
41
1
42
1
50
0
0
INSERT
8
0
2
*U19
10
12000
20
30600
41
1
42
1
50
0
0
INSERT
8
0
2
*U19
10
16000
20
5100
41
1
42
1
50
0
0
INSERT
8
0
2
*U19
10
16000
20
10200
41
1
42
1
50
0
0
INSERT
8
0
2
*U19
10
16000
20
15300
41
1
42
1
50
0
0
INSERT
8
0
2
*U19
10
16000
20
20400
41
1
42
1
50
0
0
INSERT
8
0
2
*U19
10
16000
20
25500
41
1
42
1
50
0
0
INSERT
8
0
2
*U19
10
16000
20
30600
41
1
42
1
50
0
0
INSERT
8
0
2
*U19
10
20000
20
5100
41
1
42
1
50
0
0
INSERT
8
0
2
*U19
10
20000
20
10200
41
1
42
1
50
0
0
INSERT
8
0
2
*U19
10
20000
20
15300
41
1
42
1
50
0
0
INSERT
8
0
2
*U19
10
20000
20
20400
41
1
42
1
50
0
0
INSERT
8
0
2
*U19
10
20000
20
25500
41
1
42
1
50
0
0
INSERT
8
0
2
*U19
10
20000
20
30600
41
1
42
1
50
0
0
INSERT
8
0
2
*U19
10
24000
20
5100
41
1
42
1
50
0
0
INSERT
8
0
2
*U19
10
24000
20
10200
41
1
42
1
50
0
0
INSERT
8
0
2
*U19
10
24000
20
15300
41
1
42
1
50
0
0
INSERT
8
0
2
*U19
10
24000
20
20400
41
1
42
1
50
0
0
INSERT
8
0
2
*U19
10
24000
20
25500
41
1
42
1
50
0
0
INSERT
8
0
2
*U19
10
24000
20
30600
41
1
42
1
50
0
0
INSERT
8
0
2
*U19
10
28000
20
5100
41
1
42
1
50
0
0
INSERT
8
0
2
*U19
10
28000
20
10200
41
1
42
1
50
0
0
INSERT
8
0
2
*U19
10
28000
20
15300
41
1
42
1
50
0
0
INSERT
8
0
2
*U19
10
28000
20
20400
41
1
42
1
50
0
0
INSERT
8
0
2
*U19
10
28000
20
25500
41
1
42
1
50
0
0
INSERT
8
0
2
*U19
10
28000
20
30600
41
1
42
1
50
0
0
INSERT
8
0
2
*U19
10
32000
20
5100
41
1
42
1
50
0
0
INSERT
8
0
2
*U19
10
32000
20
10200
41
1
42
1
50
0
0
INSERT
8
0
2
*U19
10
32000
20
15300
41
1
42
1
50
0
0
INSERT
8
0
2
*U19
10
32000
20
20400
41
1
42
1
50
0
0
INSERT
8
0
2
*U19
10
32000
20
25500
41
1
42
1
50
0
0
INSERT
8
0
2
*U19
10
32000
20
30600
41
1
42
1
50
0
0
INSERT
8
0
2
*U19
10
36000
20
5100
41
1
42
1
50
0
0
INSERT
8
0
2
*U19
10
36000
20
10200
41
1
42
1
50
0
0
INSERT
8
0
2
*U19
10
36000
20
15300
41
1
42
1
50
0
0
INSERT
8
0
2
*U19
10
36000
20
20400
41
1
42
1
50
0
0
INSERT
8
0
2
*U19
10
36000
20
25500
41
1
42
1
50
0
0
INSERT
8
0
2
*U19
10
36000
20
30600
41
1
42
1
50
0
0
INSERT
8
0
2
*U19
10
40000
20
5100
41
1
42
1
50
0
0
INSERT
8
0
2
*U19
10
40000
20
10200
41
1
42
1
50
0
0
INSERT
8
0
2
*U19
10
40000
20
15300
41
1
42
1
50
0
0
INSERT
8
0
2
*U19
10
40000
20
20400
41
1
42
1
50
0
0
INSERT
8
0
2
*U19
10
40000
20
25500
41
1
42
1
50
0
0
INSERT
8
0
2
*U19
10
40000
20
30600
41
1
42
1
50
0
0
INSERT
8
0
2
*U19
10
0
20
0
41
1
42
1
50
0
0
INSERT
8
0
2
*U19
10
44000
20
0
41
1
42
1
50
0
0
INSERT
8
0
2
*U19
10
44000
20
5100
41
1
42
1
50
0
0
INSERT
8
0
2
*U19
10
44000
20
10200
41
1
42
1
50
0
0
INSERT
8
0
2
*U19
10
44000
20
15300
41
1
42
1
50
0
0
INSERT
8
0
2
*U19
10
44000
20
20400
41
1
42
1
50
0
0
INSERT
8
0
2
*U19
10
44000
20
25500
41
1
42
1
50
0
0
INSERT
8
0
2
*U19
10
44000
20
30600
41
1
42
1
50
0
0
INSERT
8
0
2
*U19
10
0
20
30600
41
1
42
1
50
0
0
INSERT
8
0
2
*U19
10
0
20
15300
41
1
42
1
50
0
0
INSERT
8
0
2
*U19
10
0
20
35700
41
1
42
1
50
0
0
INSERT
8
0
2
*U19
10
4000
20
35700
41
1
42
1
50
0
0
INSERT
8
0
2
*U19
10
8000
20
35700
41
1
42
1
50
0
0
INSERT
8
0
2
*U19
10
12000
20
35700
41
1
42
1
50
0
0
INSERT
8
0
2
*U19
10
16000
20
35700
41
1
42
1
50
0
0
INSERT
8
0
2
*U19
10
20000
20
35700
41
1
42
1
50
0
0
INSERT
8
0
2
*U19
10
24000
20
35700
41
1
42
1
50
0
0
INSERT
8
0
2
*U19
10
28000
20
35700
41
1
42
1
50
0
0
INSERT
8
0
2
*U19
10
32000
20
35700
41
1
42
1
50
0
0
INSERT
8
0
2
*U19
10
36000
20
35700
41
1
42
1
50
0
0
INSERT
8
0
2
*U19
10
40000
20
35700
41
1
42
1
50
0
0
INSERT
8
0
2
*U19
10
44000
20
35700
41
1
42
1
50
0
0
ENDBLK
0
BLOCK
2
*U16
70
1
10
0
20
0
0
INSERT
8
0
2
*U15
10
0
20
-5100
41
1
42
1
50
0
0
INSERT
8
0
2
*U15
10
0
20
-10200
41
1
42
1
50
0
0
INSERT
8
0
2
*U15
10
0
20
-15300
41
1
42
1
50
0
0
INSERT
8
0
2
*U15
10
0
20
-20400
41
1
42
1
50
0
0
INSERT
8
0
2
*U15
10
0
20
-25500
41
1
42
1
50
0
0
INSERT
8
0
2
*U15
10
0
20
-30600
41
1
42
1
50
0
0
INSERT
8
0
2
*U15
10
0
20
-35700
41
1
42
1
50
0
0
INSERT
8
0
2
*U15
10
0
20
0
41
1
42
1
50
0
0
ENDBLK
0
BLOCK
2
*U13
70
1
10
0
20
0
0
INSERT
8
0
2
*U12
10
0
20
-2550
41
1
42
1
50
0
0
INSERT
8
0
2
*U12
10
0
20
-5100
41
1
42
1
50
0
0
INSERT
8
0
2
*U12
10
0
20
-7650
41
1
42
1
50
0
0
INSERT
8
0
2
*U12
10
0
20
-10200
41
1
42
1
50
0
0
INSERT
8
0
2
*U12
10
0
20
-12750
41
1
42
1
50
0
0
INSERT
8
0
2
*U12
10
0
20
-15300
41
1
42
1
50
0
0
INSERT
8
0
2
*U12
10
0
20
-17850
41
1
42
1
50
0
0
INSERT
8
0
2
*U12
10
0
20
-20400
41
1
42
1
50
0
0
INSERT
8
0
2
*U12
10
0
20
-22950
41
1
42
1
50
0
0
INSERT
8
0
2
*U12
10
0
20
-25500
41
1
42
1
50
0
0
INSERT
8
0
2
*U12
10
0
20
-28050
41
1
42
1
50
0
0
INSERT
8
0
2
*U12
10
0
20
-30600
41
1
42
1
50
0
0
INSERT
8
0
2
*U12
10
0
20
-33150
41
1
42
1
50
0
0
INSERT
8
0
2
*U12
10
0
20
-35700
41
1
42
1
50
0
0
INSERT
8
0
2
*U12
10
0
20
-38250
41
1
42
1
50
0
0
INSERT
8
0
2
*U12
10
0
20
0
41
1
42
1
50
0
0
ENDBLK
0
BLOCK
2
*U9
70
1
10
0
20
0
0
INSERT
8
0
2
*U8
10
0
20
-2550
41
1
42
1
50
0
0
INSERT
8
0
2
*U8
10
0
20
-5100
41
1
42
1
50
0
0
INSERT
8
0
2
*U8
10
0
20
-7650
41
1
42
1
50
0
0
INSERT
8
0
2
*U8
10
0
20
-10200
41
1
42
1
50
0
0
INSERT
8
0
2
*U8
10
0
20
-12750
41
1
42
1
50
0
0
INSERT
8
0
2
*U8
10
0
20
-15300
41
1
42
1
50
0
0
INSERT
8
0
2
*U8
10
0
20
-17850
41
1
42
1
50
0
0
INSERT
8
0
2
*U8
10
0
20
-20400
41
1
42
1
50
0
0
INSERT
8
0
2
*U8
10
0
20
-22950
41
1
42
1
50
0
0
INSERT
8
0
2
*U8
10
0
20
-25500
41
1
42
1
50
0
0
INSERT
8
0
2
*U8
10
0
20
-28050
41
1
42
1
50
0
0
INSERT
8
0
2
*U8
10
0
20
-30600
41
1
42
1
50
0
0
INSERT
8
0
2
*U8
10
0
20
-33150
41
1
42
1
50
0
0
INSERT
8
0
2
*U8
10
0
20
-35700
41
1
42
1
50
0
0
INSERT
8
0
2
*U8
10
0
20
-38250
41
1
42
1
50
0
0
INSERT
8
0
2
*U8
10
2000
20
0
41
1
42
1
50
0
0
INSERT
8
0
2
*U8
10
2000
20
-2550
41
1
42
1
50
0
0
INSERT
8
0
2
*U8
10
2000
20
-5100
41
1
42
1
50
0
0
INSERT
8
0
2
*U8
10
2000
20
-7650
41
1
42
1
50
0
0
INSERT
8
0
2
*U8
10
2000
20
-10200
41
1
42
1
50
0
0
INSERT
8
0
2
*U8
10
2000
20
-12750
41
1
42
1
50
0
0
INSERT
8
0
2
*U8
10
2000
20
-15300
41
1
42
1
50
0
0
INSERT
8
0
2
*U8
10
2000
20
-17850
41
1
42
1
50
0
0
INSERT
8
0
2
*U8
10
2000
20
-20400
41
1
42
1
50
0
0
INSERT
8
0
2
*U8
10
2000
20
-22950
41
1
42
1
50
0
0
INSERT
8
0
2
*U8
10
2000
20
-25500
41
1
42
1
50
0
0
INSERT
8
0
2
*U8
10
2000
20
-28050
41
1
42
1
50
0
0
INSERT
8
0
2
*U8
10
2000
20
-30600
41
1
42
1
50
0
0
INSERT
8
0
2
*U8
10
2000
20
-33150
41
1
42
1
50
0
0
INSERT
8
0
2
*U8
10
2000
20
-35700
41
1
42
1
50
0
0
INSERT
8
0
2
*U8
10
2000
20
-38250
41
1
42
1
50
0
0
INSERT
8
0
2
*U8
10
4000
20
0
41
1
42
1
50
0
0
INSERT
8
0
2
*U8
10
4000
20
-2550
41
1
42
1
50
0
0
INSERT
8
0
2
*U8
10
4000
20
-5100
41
1
42
1
50
0
0
INSERT
8
0
2
*U8
10
4000
20
-7650
41
1
42
1
50
0
0
INSERT
8
0
2
*U8
10
4000
20
-10200
41
1
42
1
50
0
0
INSERT
8
0
2
*U8
10
4000
20
-12750
41
1
42
1
50
0
0
INSERT
8
0
2
*U8
10
4000
20
-15300
41
1
42
1
50
0
0
INSERT
8
0
2
*U8
10
4000
20
-17850
41
1
42
1
50
0
0
INSERT
8
0
2
*U8
10
4000
20
-20400
41
1
42
1
50
0
0
INSERT
8
0
2
*U8
10
4000
20
-22950
41
1
42
1
50
0
0
INSERT
8
0
2
*U8
10
4000
20
-25500
41
1
42
1
50
0
0
INSERT
8
0
2
*U8
10
4000
20
-28050
41
1
42
1
50
0
0
INSERT
8
0
2
*U8
10
4000
20
-30600
41
1
42
1
50
0
0
INSERT
8
0
2
*U8
10
4000
20
-33150
41
1
42
1
50
0
0
INSERT
8
0
2
*U8
10
4000
20
-35700
41
1
42
1
50
0
0
INSERT
8
0
2
*U8
10
4000
20
-38250
41
1
42
1
50
0
0
INSERT
8
0
2
*U8
10
6000
20
0
41
1
42
1
50
0
0
INSERT
8
0
2
*U8
10
6000
20
-2550
41
1
42
1
50
0
0
INSERT
8
0
2
*U8
10
6000
20
-5100
41
1
42
1
50
0
0
INSERT
8
0
2
*U8
10
6000
20
-7650
41
1
42
1
50
0
0
INSERT
8
0
2
*U8
10
6000
20
-10200
41
1
42
1
50
0
0
INSERT
8
0
2
*U8
10
6000
20
-12750
41
1
42
1
50
0
0
INSERT
8
0
2
*U8
10
6000
20
-15300
41
1
42
1
50
0
0
INSERT
8
0
2
*U8
10
6000
20
-17850
41
1
42
1
50
0
0
INSERT
8
0
2
*U8
10
6000
20
-20400
41
1
42
1
50
0
0
INSERT
8
0
2
*U8
10
6000
20
-22950
41
1
42
1
50
0
0
INSERT
8
0
2
*U8
10
6000
20
-25500
41
1
42
1
50
0
0
INSERT
8
0
2
*U8
10
6000
20
-28050
41
1
42
1
50
0
0
INSERT
8
0
2
*U8
10
6000
20
-30600
41
1
42
1
50
0
0
INSERT
8
0
2
*U8
10
6000
20
-33150
41
1
42
1
50
0
0
INSERT
8
0
2
*U8
10
6000
20
-35700
41
1
42
1
50
0
0
INSERT
8
0
2
*U8
10
6000
20
-38250
41
1
42
1
50
0
0
INSERT
8
0
2
*U8
10
8000
20
0
41
1
42
1
50
0
0
INSERT
8
0
2
*U8
10
8000
20
-2550
41
1
42
1
50
0
0
INSERT
8
0
2
*U8
10
8000
20
-5100
41
1
42
1
50
0
0
INSERT
8
0
2
*U8
10
8000
20
-7650
41
1
42
1
50
0
0
INSERT
8
0
2
*U8
10
8000
20
-10200
41
1
42
1
50
0
0
INSERT
8
0
2
*U8
10
8000
20
-12750
41
1
42
1
50
0
0
INSERT
8
0
2
*U8
10
8000
20
-15300
41
1
42
1
50
0
0
INSERT
8
0
2
*U8
10
8000
20
-17850
41
1
42
1
50
0
0
INSERT
8
0
2
*U8
10
8000
20
-20400
41
1
42
1
50
0
0
INSERT
8
0
2
*U8
10
8000
20
-22950
41
1
42
1
50
0
0
INSERT
8
0
2
*U8
10
8000
20
-25500
41
1
42
1
50
0
0
INSERT
8
0
2
*U8
10
8000
20
-28050
41
1
42
1
50
0
0
INSERT
8
0
2
*U8
10
8000
20
-30600
41
1
42
1
50
0
0
INSERT
8
0
2
*U8
10
8000
20
-33150
41
1
42
1
50
0
0
INSERT
8
0
2
*U8
10
8000
20
-35700
41
1
42
1
50
0
0
INSERT
8
0
2
*U8
10
8000
20
-38250
41
1
42
1
50
0
0
INSERT
8
0
2
*U8
10
10000
20
-2550
41
1
42
1
50
0
0
INSERT
8
0
2
*U8
10
10000
20
-5100
41
1
42
1
50
0
0
INSERT
8
0
2
*U8
10
10000
20
-7650
41
1
42
1
50
0
0
INSERT
8
0
2
*U8
10
10000
20
-10200
41
1
42
1
50
0
0
INSERT
8
0
2
*U8
10
10000
20
-12750
41
1
42
1
50
0
0
INSERT
8
0
2
*U8
10
10000
20
-15300
41
1
42
1
50
0
0
INSERT
8
0
2
*U8
10
10000
20
-17850
41
1
42
1
50
0
0
INSERT
8
0
2
*U8
10
10000
20
-20400
41
1
42
1
50
0
0
INSERT
8
0
2
*U8
10
10000
20
-22950
41
1
42
1
50
0
0
INSERT
8
0
2
*U8
10
10000
20
-25500
41
1
42
1
50
0
0
INSERT
8
0
2
*U8
10
10000
20
-28050
41
1
42
1
50
0
0
INSERT
8
0
2
*U8
10
10000
20
-30600
41
1
42
1
50
0
0
INSERT
8
0
2
*U8
10
10000
20
-33150
41
1
42
1
50
0
0
INSERT
8
0
2
*U8
10
10000
20
-35700
41
1
42
1
50
0
0
INSERT
8
0
2
*U8
10
10000
20
-38250
41
1
42
1
50
0
0
INSERT
8
0
2
*U8
10
0
20
0
41
1
42
1
50
0
0
INSERT
8
0
2
*U8
10
10000
20
0
41
1
42
1
50
0
0
ENDBLK
0
BLOCK
2
*U7
70
1
10
0
20
0
0
INSERT
8
0
2
*U6
10
0
20
-5100
41
1
42
1
50
0
0
INSERT
8
0
2
*U6
10
0
20
-10200
41
1
42
1
50
0
0
INSERT
8
0
2
*U6
10
0
20
-15300
41
1
42
1
50
0
0
INSERT
8
0
2
*U6
10
0
20
-20400
41
1
42
1
50
0
0
INSERT
8
0
2
*U6
10
0
20
-25500
41
1
42
1
50
0
0
INSERT
8
0
2
*U6
10
4000
20
0
41
1
42
1
50
0
0
INSERT
8
0
2
*U6
10
4000
20
-5100
41
1
42
1
50
0
0
INSERT
8
0
2
*U6
10
4000
20
-10200
41
1
42
1
50
0
0
INSERT
8
0
2
*U6
10
4000
20
-15300
41
1
42
1
50
0
0
INSERT
8
0
2
*U6
10
4000
20
-20400
41
1
42
1
50
0
0
INSERT
8
0
2
*U6
10
4000
20
-25500
41
1
42
1
50
0
0
INSERT
8
0
2
*U6
10
8000
20
0
41
1
42
1
50
0
0
INSERT
8
0
2
*U6
10
8000
20
-5100
41
1
42
1
50
0
0
INSERT
8
0
2
*U6
10
8000
20
-10200
41
1
42
1
50
0
0
INSERT
8
0
2
*U6
10
8000
20
-15300
41
1
42
1
50
0
0
INSERT
8
0
2
*U6
10
8000
20
-20400
41
1
42
1
50
0
0
INSERT
8
0
2
*U6
10
8000
20
-25500
41
1
42
1
50
0
0
INSERT
8
0
2
*U6
10
12000
20
0
41
1
42
1
50
0
0
INSERT
8
0
2
*U6
10
12000
20
-5100
41
1
42
1
50
0
0
INSERT
8
0
2
*U6
10
12000
20
-10200
41
1
42
1
50
0
0
INSERT
8
0
2
*U6
10
12000
20
-15300
41
1
42
1
50
0
0
INSERT
8
0
2
*U6
10
12000
20
-20400
41
1
42
1
50
0
0
INSERT
8
0
2
*U6
10
12000
20
-25500
41
1
42
1
50
0
0
INSERT
8
0
2
*U6
10
16000
20
0
41
1
42
1
50
0
0
INSERT
8
0
2
*U6
10
16000
20
-5100
41
1
42
1
50
0
0
INSERT
8
0
2
*U6
10
16000
20
-10200
41
1
42
1
50
0
0
INSERT
8
0
2
*U6
10
16000
20
-15300
41
1
42
1
50
0
0
INSERT
8
0
2
*U6
10
16000
20
-20400
41
1
42
1
50
0
0
INSERT
8
0
2
*U6
10
16000
20
-25500
41
1
42
1
50
0
0
INSERT
8
0
2
*U6
10
20000
20
0
41
1
42
1
50
0
0
INSERT
8
0
2
*U6
10
20000
20
-5100
41
1
42
1
50
0
0
INSERT
8
0
2
*U6
10
20000
20
-10200
41
1
42
1
50
0
0
INSERT
8
0
2
*U6
10
20000
20
-15300
41
1
42
1
50
0
0
INSERT
8
0
2
*U6
10
20000
20
-20400
41
1
42
1
50
0
0
INSERT
8
0
2
*U6
10
20000
20
-25500
41
1
42
1
50
0
0
INSERT
8
0
2
*U6
10
24000
20
0
41
1
42
1
50
0
0
INSERT
8
0
2
*U6
10
24000
20
-5100
41
1
42
1
50
0
0
INSERT
8
0
2
*U6
10
24000
20
-10200
41
1
42
1
50
0
0
INSERT
8
0
2
*U6
10
24000
20
-15300
41
1
42
1
50
0
0
INSERT
8
0
2
*U6
10
24000
20
-20400
41
1
42
1
50
0
0
INSERT
8
0
2
*U6
10
24000
20
-25500
41
1
42
1
50
0
0
INSERT
8
0
2
*U6
10
28000
20
0
41
1
42
1
50
0
0
INSERT
8
0
2
*U6
10
28000
20
-5100
41
1
42
1
50
0
0
INSERT
8
0
2
*U6
10
28000
20
-10200
41
1
42
1
50
0
0
INSERT
8
0
2
*U6
10
28000
20
-15300
41
1
42
1
50
0
0
INSERT
8
0
2
*U6
10
28000
20
-20400
41
1
42
1
50
0
0
INSERT
8
0
2
*U6
10
28000
20
-25500
41
1
42
1
50
0
0
INSERT
8
0
2
*U6
10
32000
20
0
41
1
42
1
50
0
0
INSERT
8
0
2
*U6
10
32000
20
-5100
41
1
42
1
50
0
0
INSERT
8
0
2
*U6
10
32000
20
-10200
41
1
42
1
50
0
0
INSERT
8
0
2
*U6
10
32000
20
-15300
41
1
42
1
50
0
0
INSERT
8
0
2
*U6
10
32000
20
-20400
41
1
42
1
50
0
0
INSERT
8
0
2
*U6
10
32000
20
-25500
41
1
42
1
50
0
0
INSERT
8
0
2
*U6
10
36000
20
0
41
1
42
1
50
0
0
INSERT
8
0
2
*U6
10
36000
20
-5100
41
1
42
1
50
0
0
INSERT
8
0
2
*U6
10
36000
20
-10200
41
1
42
1
50
0
0
INSERT
8
0
2
*U6
10
36000
20
-15300
41
1
42
1
50
0
0
INSERT
8
0
2
*U6
10
36000
20
-20400
41
1
42
1
50
0
0
INSERT
8
0
2
*U6
10
36000
20
-25500
41
1
42
1
50
0
0
INSERT
8
0
2
*U6
10
40000
20
0
41
1
42
1
50
0
0
INSERT
8
0
2
*U6
10
40000
20
-5100
41
1
42
1
50
0
0
INSERT
8
0
2
*U6
10
40000
20
-10200
41
1
42
1
50
0
0
INSERT
8
0
2
*U6
10
40000
20
-15300
41
1
42
1
50
0
0
INSERT
8
0
2
*U6
10
40000
20
-20400
41
1
42
1
50
0
0
INSERT
8
0
2
*U6
10
40000
20
-25500
41
1
42
1
50
0
0
INSERT
8
0
2
*U6
10
44000
20
0
41
1
42
1
50
0
0
INSERT
8
0
2
*U6
10
44000
20
-5100
41
1
42
1
50
0
0
INSERT
8
0
2
*U6
10
44000
20
-10200
41
1
42
1
50
0
0
INSERT
8
0
2
*U6
10
44000
20
-15300
41
1
42
1
50
0
0
INSERT
8
0
2
*U6
10
44000
20
-20400
41
1
42
1
50
0
0
INSERT
8
0
2
*U6
10
44000
20
-25500
41
1
42
1
50
0
0
INSERT
8
0
2
*U6
10
0
20
-30600
41
1
42
1
50
0
0
INSERT
8
0
2
*U6
10
0
20
-35700
41
1
42
1
50
0
0
INSERT
8
0
2
*U6
10
4000
20
-30600
41
1
42
1
50
0
0
INSERT
8
0
2
*U6
10
4000
20
-35700
41
1
42
1
50
0
0
INSERT
8
0
2
*U6
10
8000
20
-30600
41
1
42
1
50
0
0
INSERT
8
0
2
*U6
10
8000
20
-35700
41
1
42
1
50
0
0
INSERT
8
0
2
*U6
10
12000
20
-30600
41
1
42
1
50
0
0
INSERT
8
0
2
*U6
10
12000
20
-35700
41
1
42
1
50
0
0
INSERT
8
0
2
*U6
10
16000
20
-30600
41
1
42
1
50
0
0
INSERT
8
0
2
*U6
10
16000
20
-35700
41
1
42
1
50
0
0
INSERT
8
0
2
*U6
10
20000
20
-30600
41
1
42
1
50
0
0
INSERT
8
0
2
*U6
10
20000
20
-35700
41
1
42
1
50
0
0
INSERT
8
0
2
*U6
10
24000
20
-30600
41
1
42
1
50
0
0
INSERT
8
0
2
*U6
10
24000
20
-35700
41
1
42
1
50
0
0
INSERT
8
0
2
*U6
10
28000
20
-30600
41
1
42
1
50
0
0
INSERT
8
0
2
*U6
10
28000
20
-35700
41
1
42
1
50
0
0
INSERT
8
0
2
*U6
10
32000
20
-30600
41
1
42
1
50
0
0
INSERT
8
0
2
*U6
10
32000
20
-35700
41
1
42
1
50
0
0
INSERT
8
0
2
*U6
10
36000
20
-30600
41
1
42
1
50
0
0
INSERT
8
0
2
*U6
10
36000
20
-35700
41
1
42
1
50
0
0
INSERT
8
0
2
*U6
10
40000
20
-30600
41
1
42
1
50
0
0
INSERT
8
0
2
*U6
10
40000
20
-35700
41
1
42
1
50
0
0
INSERT
8
0
2
*U6
10
44000
20
-30600
41
1
42
1
50
0
0
INSERT
8
0
2
*U6
10
44000
20
-35700
41
1
42
1
50
0
0
INSERT
8
0
2
*U6
10
0
20
0
41
1
42
1
50
0
0
ENDBLK
0
BLOCK
2
Wafer (4-inch)
70
0
10
0
20
0
0
ENDBLK
0
BLOCK
2
Glass Slide Area
70
0
10
0
20
0
0
ENDBLK
0
ENDSEC
0
SECTION
2
ENTITIES
0
INSERT
8
0
2
Wafer (4-inch)
10
0
20
0
41
1
42
1
50
0
0
INSERT
8
0
2
Glass Slide Area
10
0
20
0
41
1
42
1
50
0
0
INSERT
8
0
2
*U7
10
-12425
20
17525
41
1
42
1
50
0
0
INSERT
8
0
2
*U9
10
-28150
20
18375
41
1
42
1
50
0
0
INSERT
8
0
2
*U13
10
-22600
20
17200
41
1
42
1
50
0
0
INSERT
8
0
2
*U16
10
7500
20
16550
41
1
42
1
50
0
0
INSERT
8
0
2
*U20
10
-12425
20
-18200
41
1
42
1
50
0
0
INSERT
8
0
2
Pinwheel
10
-32575
20
-22275
41
1
42
1
50
0
0
INSERT
8
0
2
Pinwheel
10
-32575
20
-15525
41
1
42
1
50
270
0
INSERT
8
0
2
*U25
10
-29283.333
20
17125
41
1
42
1
50
0
0
TEXT
8
Reagent Routing
10
33875
20
-18200
40
1200
1
H
50
0
72
0
11
33875
21
-18200
73
2
0
TEXT
8
Reagent Routing
10
33875
20
-13100
40
1200
1
G
50
0
72
0
11
33875
21
-13100
73
2
0
TEXT
8
Reagent Routing
10
33875
20
-8000
40
1200
1
F
50
0
72
0
11
33875
21
-8000
73
2
0
TEXT
8
Reagent Routing
10
33875
20
-2900
40
1200
1
E
50
0
72
0
11
33875
21
-2900
73
2
0
TEXT
8
Reagent Routing
10
33875
20
2200
40
1200
1
D
50
0
72
0
11
33875
21
2200
73
2
0
TEXT
8
Reagent Routing
10
33875
20
7300
40
1200
1
C
50
0
72
0
11
33875
21
7300
73
2
0
TEXT
8
Reagent Routing
10
33875
20
12400
40
1200
1
B
50
0
72
0
11
33875
21
12400
73
2
0
TEXT
8
Reagent Routing
10
33875
20
17500
40
1200
1
A
50
0
72
0
11
33875
21
17500
73
2
0
TEXT
8
Reagent Routing
10
-12425
20
-23775
40
1200
1
1
50
0
72
1
11
-12425
21
-23775
73
0
0
TEXT
8
Reagent Routing
10
-8425
20
-23775
40
1200
1
2
50
0
72
1
11
-8425
21
-23775
73
0
0
TEXT
8
Reagent Routing
10
-4425
20
-23775
40
1200
1
3
50
0
72
1
11
-4425
21
-23775
73
0
0
TEXT
8
Reagent Routing
10
-425
20
-23775
40
1200
1
4
50
0
72
1
11
-425
21
-23775
73
0
0
TEXT
8
Reagent Routing
10
3575
20
-23775
40
1200
1
5
50
0
72
1
11
3575
21
-23775
73
0
0
TEXT
8
Reagent Routing
10
7575
20
-23775
40
1200
1
6
50
0
72
1
11
7575
21
-23775
73
0
0
TEXT
8
Reagent Routing
10
11575
20
-23775
40
1200
1
7
50
0
72
1
11
11575
21
-23775
73
0
0
TEXT
8
Reagent Routing
10
15575
20
-23775
40
1200
1
8
50
0
72
1
11
15575
21
-23775
73
0
0
TEXT
8
Reagent Routing
10
19575
20
-23775
40
1200
1
9
50
0
72
1
11
19575
21
-23775
73
0
0
TEXT
8
Reagent Routing
10
23575
20
-23775
40
1200
1
10
50
0
72
1
11
23575
21
-23775
73
0
0
TEXT
8
Reagent Routing
10
27575
20
-23775
40
1200
1
11
50
0
72
1
11
27575
21
-23775
73
0
0
TEXT
8
Reagent Routing
10
31575
20
-23775
40
1200
1
12
50
0
72
1
11
31575
21
-23775
73
0
0
TEXT
8
Reagent Routing
10
-29875
20
-18625
40
600
1
H
50
0
72
0
11
-29875
21
-18625
73
2
0
TEXT
8
Reagent Routing
10
-29875
20
-13525
40
600
1
G
50
0
72
0
11
-29875
21
-13525
73
2
0
TEXT
8
Reagent Routing
10
-29875
20
-8425
40
600
1
F
50
0
72
0
11
-29875
21
-8425
73
2
0
TEXT
8
Reagent Routing
10
-29875
20
-3325
40
600
1
E
50
0
72
0
11
-29875
21
-3325
73
2
0
TEXT
8
Reagent Routing
10
-29875
20
1775
40
600
1
D
50
0
72
0
11
-29875
21
1775
73
2
0
TEXT
8
Reagent Routing
10
-29875
20
6875
40
600
1
C
50
0
72
0
11
-29875
21
6875
73
2
0
TEXT
8
Reagent Routing
10
-29875
20
11975
40
600
1
B
50
0
72
0
11
-29875
21
11975
73
2
0
TEXT
8
Reagent Routing
10
-29875
20
17075
40
600
1
A
50
0
72
0
11
-29875
21
17075
73
2
0
CIRCLE
8
Reagent Routing
10
-26150
20
-22275
40
500
0
POLYLINE
8
Reagent Routing
70
0
40
100
41
100
66
1
0
VERTEX
8
Reagent Routing
10
-26500
20
-22275
0
VERTEX
8
Reagent Routing
10
-31925
20
-22275
0
SEQEND
0
CIRCLE
8
Reagent Routing
10
-32575
20
-22275
40
675
0
POLYLINE
8
Reagent Routing
70
0
40
100
41
100
66
1
0
VERTEX
8
Reagent Routing
10
-32575
20
-21625
0
VERTEX
8
Reagent Routing
10
-32575
20
-16000
0
SEQEND
0
CIRCLE
8
Reagent Routing
10
-32575
20
-15525
40
675
0
ENDSEC
0
EOF
